<?xml version="1.0" encoding="UTF-8"?>
<svg xmlns="http://www.w3.org/2000/svg" xmlns:xlink="http://www.w3.org/1999/xlink" viewBox="0 0 64 64" width="64px" height="64px">
<g id="surface235245493">
<path style=" stroke:none;fill-rule:nonzero;fill:rgb(0%,0%,0%);fill-opacity:1;" d="M 38.570312 3.003906 C 35.21875 2.910156 31.84375 3.753906 28.890625 5.628906 C 28.890625 5.628906 28.886719 5.628906 28.886719 5.632812 L 15.847656 13.976562 C 15.84375 13.976562 15.84375 13.980469 15.839844 13.980469 L 15.839844 13.984375 C 12.046875 16.363281 9.414062 20.257812 8.65625 24.667969 C 8.039062 28.140625 8.585938 31.683594 10.132812 34.84375 C 9.074219 36.546875 8.320312 38.40625 7.992188 40.371094 C 7.992188 40.371094 7.992188 40.371094 7.988281 40.375 C 7.1875 44.859375 8.246094 49.484375 10.859375 53.164062 C 10.863281 53.164062 10.863281 53.167969 10.863281 53.171875 L 10.867188 53.171875 C 16.386719 61.042969 27.214844 63.363281 35.085938 58.371094 L 48.128906 50.070312 C 51.929688 47.691406 54.558594 43.792969 55.320312 39.382812 C 55.9375 35.90625 55.390625 32.363281 53.839844 29.207031 C 54.898438 27.5 55.652344 25.640625 55.980469 23.679688 C 56.835938 19.144531 55.777344 14.507812 53.105469 10.824219 C 49.683594 5.90625 44.15625 3.15625 38.570312 3.003906 Z M 21.746094 3.03125 C 21.617188 3.050781 21.488281 3.101562 21.371094 3.179688 C 20.902344 3.480469 20.765625 4.105469 21.066406 4.570312 L 22.152344 6.246094 C 22.453125 6.710938 23.074219 6.839844 23.546875 6.535156 C 24.015625 6.234375 24.152344 5.609375 23.851562 5.148438 L 22.765625 3.46875 C 22.539062 3.121094 22.132812 2.960938 21.746094 3.03125 Z M 38.53125 5.011719 C 43.496094 5.152344 48.429688 7.59375 51.472656 11.980469 C 51.476562 11.984375 51.480469 11.992188 51.488281 11.996094 C 53.839844 15.238281 54.773438 19.320312 54.015625 23.320312 C 54.015625 23.328125 54.011719 23.335938 54.011719 23.34375 C 53.703125 25.191406 53 26.957031 51.9375 28.550781 C 51.730469 28.859375 51.714844 29.253906 51.890625 29.582031 C 53.4375 32.457031 53.929688 35.785156 53.351562 39.035156 C 53.347656 39.039062 53.347656 39.039062 53.351562 39.042969 C 52.6875 42.886719 50.386719 46.296875 47.066406 48.375 C 47.0625 48.375 47.0625 48.378906 47.0625 48.378906 L 34.011719 56.683594 C 27.082031 61.082031 17.417969 59.039062 12.5 52.019531 C 12.5 52.015625 12.496094 52.011719 12.496094 52.011719 C 10.1875 48.769531 9.25 44.671875 9.960938 40.71875 C 9.960938 40.714844 9.960938 40.710938 9.964844 40.707031 C 10.269531 38.855469 10.976562 37.089844 12.039062 35.496094 C 12.246094 35.1875 12.261719 34.792969 12.089844 34.46875 C 10.539062 31.589844 10.046875 28.261719 10.625 25.011719 C 10.625 25.007812 10.625 25.007812 10.628906 25.003906 C 11.289062 21.160156 13.589844 17.75 16.910156 15.671875 C 16.910156 15.671875 16.914062 15.667969 16.917969 15.667969 L 29.960938 7.316406 L 29.964844 7.316406 C 32.5625 5.667969 35.550781 4.925781 38.53125 5.011719 Z M 17.496094 5.777344 C 17.367188 5.800781 17.238281 5.851562 17.121094 5.929688 C 16.652344 6.230469 16.515625 6.855469 16.8125 7.316406 L 17.902344 8.996094 C 18.203125 9.460938 18.824219 9.589844 19.292969 9.285156 C 19.765625 8.984375 19.902344 8.359375 19.601562 7.894531 L 18.515625 6.21875 C 18.289062 5.871094 17.882812 5.710938 17.496094 5.777344 Z M 13.246094 8.53125 C 13.117188 8.550781 12.988281 8.601562 12.871094 8.679688 C 12.402344 8.980469 12.265625 9.605469 12.566406 10.070312 L 13.652344 11.746094 C 13.953125 12.210938 14.574219 12.339844 15.046875 12.035156 C 15.515625 11.734375 15.652344 11.109375 15.351562 10.648438 L 14.265625 8.96875 C 14.039062 8.621094 13.632812 8.460938 13.246094 8.53125 Z M 38.441406 8.945312 C 37.566406 8.964844 36.6875 9.085938 35.8125 9.3125 C 35.800781 9.3125 35.789062 9.316406 35.777344 9.320312 C 34.753906 9.625 33.757812 10.042969 32.847656 10.632812 L 32.84375 10.632812 C 32.84375 10.632812 32.839844 10.632812 32.835938 10.636719 L 19.695312 19 C 17.296875 20.488281 15.609375 22.96875 15.125 25.75 C 14.597656 28.601562 15.285156 31.5 16.914062 33.816406 L 16.914062 33.820312 C 16.917969 33.820312 16.917969 33.820312 16.917969 33.824219 C 19.640625 37.746094 24.519531 39.578125 29.175781 38.378906 L 29.183594 38.378906 C 30.234375 38.113281 31.242188 37.691406 32.152344 37.105469 L 37.152344 33.914062 C 37.246094 33.855469 37.460938 33.773438 37.714844 33.6875 C 38.613281 33.460938 39.496094 33.777344 40.023438 34.535156 C 40.300781 34.933594 40.433594 35.5 40.34375 35.980469 C 40.246094 36.484375 40.003906 36.84375 39.539062 37.144531 L 26.453125 45.5 C 26.359375 45.554688 26.144531 45.636719 25.890625 45.726562 C 25.015625 45.945312 24.125 45.597656 23.589844 44.835938 C 23.339844 44.453125 23.199219 43.9375 23.230469 43.511719 L 23.277344 43.058594 C 23.324219 42.582031 23.027344 42.140625 22.570312 42.003906 L 22.089844 41.859375 C 20.328125 41.316406 18.710938 40.503906 17.222656 39.421875 C 17.21875 39.421875 17.21875 39.417969 17.214844 39.417969 L 16.546875 38.941406 C 16.285156 38.753906 15.949219 38.703125 15.644531 38.804688 C 15.34375 38.90625 15.105469 39.148438 15.011719 39.457031 L 14.769531 40.222656 C 14.761719 40.246094 14.753906 40.273438 14.75 40.300781 C 14.65625 40.71875 14.5625 41.101562 14.464844 41.546875 C 14.457031 41.5625 14.453125 41.578125 14.453125 41.597656 C 13.980469 44.429688 14.613281 47.335938 16.300781 49.664062 C 19.027344 53.582031 23.90625 55.417969 28.5625 54.214844 C 28.574219 54.210938 28.585938 54.207031 28.597656 54.203125 C 29.621094 53.894531 30.621094 53.480469 31.53125 52.890625 L 31.527344 52.894531 L 44.675781 44.523438 C 47.078125 43.03125 48.769531 40.546875 49.25 37.769531 C 49.25 37.765625 49.25 37.765625 49.25 37.761719 C 49.722656 34.929688 49.09375 32.023438 47.402344 29.699219 C 44.675781 25.777344 39.796875 23.941406 35.140625 25.144531 C 35.128906 25.148438 35.117188 25.152344 35.105469 25.15625 C 34.082031 25.460938 33.085938 25.878906 32.175781 26.46875 L 27.167969 29.660156 C 27.074219 29.714844 26.863281 29.796875 26.609375 29.882812 C 25.710938 30.109375 24.828125 29.792969 24.300781 29.039062 C 24.023438 28.636719 23.890625 28.070312 23.980469 27.589844 C 24.078125 27.082031 24.316406 26.726562 24.78125 26.429688 L 37.867188 18.070312 L 37.875 18.070312 C 37.96875 18.011719 38.179688 17.933594 38.433594 17.847656 C 39.328125 17.621094 40.207031 17.933594 40.734375 18.6875 C 40.984375 19.066406 41.125 19.582031 41.09375 20.011719 L 41.046875 20.464844 C 41 20.941406 41.296875 21.382812 41.753906 21.523438 L 42.230469 21.664062 L 42.234375 21.664062 C 43.996094 22.207031 45.613281 23.015625 47.101562 24.101562 C 47.105469 24.101562 47.105469 24.101562 47.109375 24.105469 L 47.78125 24.585938 C 48.039062 24.769531 48.375 24.820312 48.679688 24.71875 C 48.980469 24.617188 49.21875 24.375 49.316406 24.070312 L 49.546875 23.320312 L 49.554688 23.304688 C 49.707031 22.835938 49.8125 22.414062 49.910156 21.976562 C 49.914062 21.960938 49.917969 21.941406 49.921875 21.925781 C 50.390625 19.09375 49.761719 16.1875 48.070312 13.863281 C 46.027344 10.921875 42.777344 9.152344 39.3125 8.960938 C 39.023438 8.945312 38.734375 8.9375 38.441406 8.945312 Z M 38.488281 10.945312 C 38.730469 10.941406 38.96875 10.945312 39.203125 10.957031 C 42.066406 11.113281 44.746094 12.574219 46.4375 15.011719 C 46.441406 15.015625 46.445312 15.023438 46.449219 15.03125 C 47.816406 16.902344 48.332031 19.253906 47.945312 21.582031 C 47.898438 21.796875 47.839844 21.988281 47.785156 22.183594 C 46.339844 21.199219 44.785156 20.417969 43.117188 19.871094 L 43.085938 20.15625 C 43.097656 20.039062 43 19.941406 43 19.828125 C 42.9375 19.804688 42.878906 19.773438 42.816406 19.753906 L 42.992188 19.804688 C 42.976562 19.019531 42.839844 18.230469 42.398438 17.570312 C 42.394531 17.5625 42.390625 17.554688 42.386719 17.550781 C 41.386719 16.113281 39.59375 15.476562 37.914062 15.910156 C 37.894531 15.914062 37.871094 15.921875 37.847656 15.929688 C 37.566406 16.023438 37.214844 16.132812 36.835938 16.359375 C 36.832031 16.363281 36.824219 16.367188 36.816406 16.371094 L 23.703125 24.746094 C 23.703125 24.746094 23.703125 24.746094 23.699219 24.746094 C 22.828125 25.308594 22.207031 26.195312 22.015625 27.222656 C 21.820312 28.269531 22.070312 29.332031 22.65625 30.175781 C 22.65625 30.175781 22.65625 30.175781 22.65625 30.179688 C 23.65625 31.617188 25.449219 32.253906 27.125 31.820312 C 27.148438 31.8125 27.171875 31.804688 27.191406 31.800781 C 27.476562 31.703125 27.828125 31.597656 28.203125 31.371094 C 28.210938 31.367188 28.21875 31.363281 28.226562 31.359375 L 33.25 28.152344 C 33.25 28.152344 33.253906 28.148438 33.253906 28.148438 C 33.960938 27.691406 34.777344 27.347656 35.65625 27.082031 C 39.507812 26.089844 43.515625 27.601562 45.765625 30.847656 C 45.773438 30.851562 45.777344 30.859375 45.78125 30.863281 C 47.148438 32.742188 47.664062 35.09375 47.277344 37.425781 C 46.898438 39.621094 45.527344 41.636719 43.621094 42.824219 C 43.617188 42.824219 43.617188 42.828125 43.613281 42.832031 L 30.453125 51.207031 C 30.449219 51.207031 30.449219 51.210938 30.445312 51.210938 C 29.742188 51.667969 28.925781 52.011719 28.046875 52.277344 C 24.195312 53.269531 20.1875 51.757812 17.933594 48.511719 C 17.929688 48.507812 17.925781 48.5 17.921875 48.492188 C 16.554688 46.617188 16.039062 44.265625 16.421875 41.933594 C 16.46875 41.742188 16.515625 41.542969 16.558594 41.351562 C 18 42.332031 19.546875 43.109375 21.207031 43.648438 L 21.234375 43.367188 C 21.226562 43.484375 21.324219 43.582031 21.324219 43.695312 C 21.386719 43.71875 21.445312 43.75 21.507812 43.769531 L 21.328125 43.71875 C 21.347656 44.503906 21.484375 45.292969 21.925781 45.953125 C 21.929688 45.960938 21.933594 45.964844 21.9375 45.96875 C 22.929688 47.398438 24.707031 48.101562 26.40625 47.660156 C 26.429688 47.65625 26.453125 47.648438 26.472656 47.640625 C 26.757812 47.546875 27.109375 47.4375 27.484375 47.210938 C 27.492188 47.207031 27.5 47.203125 27.507812 47.199219 L 40.617188 38.824219 C 40.621094 38.824219 40.621094 38.824219 40.621094 38.824219 C 41.496094 38.261719 42.117188 37.375 42.308594 36.347656 C 42.503906 35.300781 42.253906 34.238281 41.667969 33.394531 C 41.667969 33.394531 41.667969 33.394531 41.664062 33.390625 C 40.664062 31.953125 38.875 31.316406 37.195312 31.75 C 37.175781 31.757812 37.152344 31.765625 37.128906 31.769531 C 36.847656 31.867188 36.496094 31.972656 36.117188 32.199219 C 36.113281 32.203125 36.105469 32.207031 36.097656 32.210938 L 31.074219 35.417969 C 31.070312 35.417969 31.070312 35.421875 31.066406 35.421875 C 30.355469 35.882812 29.546875 36.226562 28.6875 36.4375 C 28.6875 36.441406 28.683594 36.441406 28.679688 36.441406 C 24.824219 37.4375 20.808594 35.925781 18.554688 32.675781 C 18.554688 32.671875 18.554688 32.671875 18.550781 32.667969 C 17.21875 30.777344 16.664062 28.417969 17.089844 26.105469 C 17.09375 26.101562 17.09375 26.097656 17.09375 26.09375 C 17.472656 23.898438 18.84375 21.882812 20.75 20.695312 C 20.753906 20.695312 20.757812 20.695312 20.757812 20.691406 L 33.917969 12.316406 C 33.921875 12.316406 33.921875 12.316406 33.925781 12.3125 C 34.632812 11.855469 35.449219 11.511719 36.332031 11.242188 C 37.050781 11.058594 37.773438 10.960938 38.488281 10.945312 Z M 8.996094 11.277344 C 8.867188 11.300781 8.738281 11.351562 8.621094 11.425781 C 8.152344 11.730469 8.015625 12.355469 8.3125 12.816406 L 9.402344 14.496094 C 9.703125 14.960938 10.324219 15.089844 10.792969 14.785156 C 11.265625 14.484375 11.402344 13.859375 11.101562 13.394531 L 10.015625 11.71875 C 9.789062 11.371094 9.382812 11.210938 8.996094 11.277344 Z M 53.589844 49.078125 C 53.460938 49.101562 53.335938 49.152344 53.21875 49.226562 C 52.746094 49.53125 52.609375 50.152344 52.910156 50.617188 L 53.996094 52.296875 C 54.296875 52.761719 54.917969 52.890625 55.390625 52.585938 C 55.859375 52.28125 55.996094 51.660156 55.695312 51.195312 L 54.609375 49.515625 C 54.382812 49.167969 53.976562 49.007812 53.589844 49.078125 Z M 49.339844 51.828125 C 49.210938 51.851562 49.085938 51.902344 48.96875 51.976562 C 48.496094 52.28125 48.359375 52.902344 48.65625 53.367188 L 49.746094 55.046875 C 50.046875 55.511719 50.667969 55.640625 51.136719 55.335938 C 51.609375 55.03125 51.746094 54.410156 51.445312 53.945312 L 50.359375 52.269531 C 50.132812 51.917969 49.726562 51.757812 49.339844 51.828125 Z M 45.089844 54.578125 C 44.960938 54.601562 44.835938 54.652344 44.71875 54.726562 C 44.246094 55.03125 44.109375 55.652344 44.410156 56.117188 L 45.496094 57.796875 C 45.796875 58.261719 46.417969 58.390625 46.890625 58.085938 C 47.359375 57.78125 47.496094 57.160156 47.195312 56.695312 L 46.109375 55.015625 C 45.882812 54.667969 45.476562 54.507812 45.089844 54.578125 Z M 40.839844 57.328125 C 40.710938 57.351562 40.585938 57.402344 40.46875 57.476562 C 39.996094 57.78125 39.859375 58.402344 40.15625 58.867188 L 41.246094 60.546875 C 41.546875 61.011719 42.167969 61.140625 42.636719 60.835938 C 43.109375 60.53125 43.246094 59.910156 42.945312 59.445312 L 41.859375 57.769531 C 41.632812 57.417969 41.226562 57.257812 40.839844 57.328125 Z M 40.839844 57.328125 "/>
</g>
</svg>
